<?xml version="1.0" encoding="utf-8"?>
<svg width="58" height="128" viewBox="0 0 58 128" fill="none" xmlns="http://www.w3.org/2000/svg">
	<clipPath id="innerClipPath">
		<path d="M0 86L0 41L27 41C30.716 41 32.574 41 34.1287 40.7538Q34.9048 40.6308 35.6689 40.4474Q36.433 40.264 37.1803 40.0211Q37.9277 39.7783 38.6537 39.4776Q39.3797 39.1769 40.0798 38.8201Q40.78 38.4634 41.45 38.0528Q42.12 37.6422 42.7557 37.1803Q43.3914 36.7185 43.989 36.2081Q44.5865 35.6978 45.1421 35.1421Q45.6978 34.5865 46.2081 33.989Q46.7185 33.3914 47.1803 32.7557Q47.6422 32.12 48.0528 31.45Q48.4634 30.78 48.8201 30.0798Q49.1769 29.3797 49.4776 28.6537Q49.7783 27.9277 50.0211 27.1803Q50.264 26.433 50.4474 25.6689Q50.6308 24.9048 50.7538 24.1287C51 22.574 51 20.716 51 17L51 0L58 0L58 128L51 128L51 110C51 106.284 51 104.426 50.7538 102.871Q50.6308 102.095 50.4474 101.331Q50.264 100.567 50.0211 99.8197Q49.7783 99.0723 49.4776 98.3463Q49.1769 97.6204 48.8201 96.9202Q48.4634 96.22 48.0528 95.55Q47.6422 94.88 47.1803 94.2443Q46.7185 93.6086 46.2081 93.0111Q45.6978 92.4135 45.1421 91.8579Q44.5865 91.3022 43.989 90.7919Q43.3914 90.2816 42.7557 89.8197Q42.12 89.3578 41.45 88.9472Q40.78 88.5366 40.0798 88.1799Q39.3797 87.8231 38.6537 87.5224Q37.9277 87.2217 37.1803 86.9789Q36.433 86.7361 35.6689 86.5526Q34.9048 86.3692 34.1287 86.2462C32.574 86 30.716 86 27 86L0 86Z" fill="#D3D3D3" fill-rule="evenodd" />
	</clipPath>
</svg>
