<?xml version="1.0" encoding="utf-8"?>
<svg width="51" height="93" viewBox="0 0 51 93" fill="none" xmlns="http://www.w3.org/2000/svg">
	<clipPath id="insideCurvedPath">
		<path d="M0 69L0 24L27 24C30.716 24 32.574 24 34.1287 23.7538Q34.9048 23.6308 35.6689 23.4474Q36.433 23.264 37.1803 23.0211Q37.9277 22.7783 38.6537 22.4776Q39.3797 22.1769 40.0798 21.8201Q40.78 21.4634 41.45 21.0528Q42.12 20.6422 42.7557 20.1803Q43.3914 19.7185 43.989 19.2081Q44.5865 18.6978 45.1421 18.1421Q45.6978 17.5865 46.2081 16.989Q46.7185 16.3914 47.1803 15.7557Q47.6422 15.12 48.0528 14.45Q48.4634 13.78 48.8201 13.0798Q49.1769 12.3797 49.4776 11.6537Q49.7783 10.9277 50.0211 10.1803Q50.264 9.433 50.4474 8.66891Q50.6308 7.90482 50.7538 7.12869C51 5.57404 51 3.71602 51 0L51 93C51 89.284 51 87.426 50.7538 85.8713Q50.6308 85.0952 50.4474 84.3311Q50.264 83.567 50.0211 82.8197Q49.7783 82.0723 49.4776 81.3463Q49.1769 80.6204 48.8201 79.9202Q48.4634 79.22 48.0528 78.55Q47.6422 77.88 47.1803 77.2443Q46.7185 76.6086 46.2081 76.011Q45.6978 75.4135 45.1421 74.8579Q44.5865 74.3022 43.989 73.7919Q43.3914 73.2816 42.7557 72.8197Q42.12 72.3578 41.45 71.9472Q40.78 71.5366 40.0798 71.1799Q39.3797 70.8231 38.6537 70.5224Q37.9277 70.2217 37.1803 69.9789Q36.433 69.7361 35.6689 69.5526Q34.9048 69.3692 34.1287 69.2462C32.574 69 30.716 69 27 69L0 69Z" fill="#D3D3D3" fill-rule="evenodd" />
	</clipPath>
</svg>
