<?xml version="1.0" encoding="utf-8"?>
<svg width="111" height="112" viewBox="0 0 111 112" fill="none" xmlns="http://www.w3.org/2000/svg">
  <g>
    <path d="M33 0C36.3142 0 39 2.68584 39 6L39 33C39 36.3142 36.3142 39 33 39L6 39C2.68584 39 0 36.3142 0 33L0 6C0 2.68584 2.68584 0 6 0L33 0Z" fill="#EEEEEE" />
    <path d="M33 0C36.3142 0 39 2.68584 39 6L39 33C39 36.3142 36.3142 39 33 39L6 39C2.68584 39 0 36.3142 0 33L0 6C0 2.68584 2.68584 0 6 0L33 0Z" fill="#EEEEEE" transform="translate(72 73)" />
    <path d="M63 6C63 2.68584 60.3142 0 57 0L6 0C2.68584 0 0 2.68584 0 6L0 57C0 60.3142 2.68584 63 6 63L15 63L15 17C15 15.3429 16.3429 14 18 14L47 14C48.6571 14 50 15.3429 50 17L50 46C50 47.6571 48.6571 49 47 49L24 49L24 63L57 63C60.3142 63 63 60.3142 63 57L63 6Z" fill="#FFFFFF" fill-rule="evenodd" transform="translate(48 0)" />
    <path d="M57 0C60.3142 0 63 2.68584 63 6.00001L63 57.0001C63 60.3142 60.3142 63.0001 57 63.0001L6 63.0001C2.68584 63.0001 0 60.3142 0 57.0001L0 6.00001C0 2.68584 2.68584 0 6 0L38 0C38.794 0.0728874 39 1.14214 39 1.14214L39 12.6193C39.1053 13.875 38 14 38 14L16.122 14.0452C16.1541 14.0785 12.9114 13.7705 13.0549 17.0349L13 43L13 46C13.1753 48.1841 14.3633 48.8934 16.122 49.0001L45 49.0001C47.1381 49.1652 47.9451 47.4155 48 46L48 0L57 0L57 0Z" fill="#FFFFFF" fill-rule="evenodd" transform="translate(0 49)" />
    <path d="M12 0C13.1047 0 14 0.895279 14 2L14 12C14 13.1047 13.1047 14 12 14L2 14C0.895281 14 0 13.1047 0 12L0 2C0 0.895279 0.895281 0 2 0L12 0Z" fill="#FFFFFF" transform="translate(23 74)" />
    <path d="M12 0C13.1047 0 14 0.895281 14 2L14 12C14 13.1047 13.1047 14 12 14L2 14C0.895279 14 0 13.1047 0 12L0 2C0 0.895281 0.895279 0 2 0L12 0Z" fill="#FFFFFF" transform="translate(74 24)" />
  </g>
</svg>